0
SECTION
2
HEADER
9
$INSUNITS
70
4
9
$ACADVER
1
AC1014
9
$HANDSEED
5
FFFF
0
ENDSEC
0
SECTION
2
TABLES
0
TABLE
2
VPORT
5
8
100
AcDbSymbolTable
0
ENDTAB
0
TABLE
2
LTYPE
5
5
100
AcDbSymbolTable
0
LTYPE
5
14
100
AcDbSymbolTableRecord
100
AcDbLinetypeTableRecord
2
BYBLOCK
70
0
0
LTYPE
5
15
100
AcDbSymbolTableRecord
100
AcDbLinetypeTableRecord
2
BYLAYER
70
0
0
ENDTAB
0
TABLE
2
LAYER
5
2
100
AcDbSymbolTable
70
2
0
LAYER
5
50
100
AcDbSymbolTableRecord
100
AcDbLayerTableRecord
2
0
70
0
6
CONTINUOUS
0
ENDTAB
0
TABLE
2
STYLE
5
3
100
AcDbSymbolTable
70
1
0
STYLE
5
11
100
AcDbSymbolTableRecord
100
AcDbTextStyleTableRecord
2
STANDARD
70
0
0
ENDTAB
0
TABLE
2
VIEW
5
6
100
AcDbSymbolTable
70
0
0
ENDTAB
0
TABLE
2
UCS
5
7
100
AcDbSymbolTable
70
0
0
ENDTAB
0
TABLE
2
APPID
5
9
100
AcDbSymbolTable
70
2
0
APPID
5
12
100
AcDbSymbolTableRecord
100
AcDbRegAppTableRecord
2
ACAD
70
0
0
ENDTAB
0
TABLE
2
DIMSTYLE
5
A
100
AcDbSymbolTable
70
1
0
ENDTAB
0
TABLE
2
BLOCK_RECORD
5
1
100
AcDbSymbolTable
70
1
0
BLOCK_RECORD
5
1F
100
AcDbSymbolTableRecord
100
AcDbBlockTableRecord
2
*MODEL_SPACE
0
BLOCK_RECORD
5
1B
100
AcDbSymbolTableRecord
100
AcDbBlockTableRecord
2
*PAPER_SPACE
0
ENDTAB
0
ENDSEC
0
SECTION
2
BLOCKS
0
BLOCK
5
20
100
AcDbEntity
100
AcDbBlockBegin
2
*MODEL_SPACE
0
ENDBLK
5
21
100
AcDbEntity
100
AcDbBlockEnd
0
BLOCK
5
1C
100
AcDbEntity
100
AcDbBlockBegin
2
*PAPER_SPACE
0
ENDBLK
5
1D
100
AcDbEntity
100
AcDbBlockEnd
0
ENDSEC
0
SECTION
2
ENTITIES
0
LINE
5
100
100
AcDbEntity
8
0
100
AcDbLine
10
-74.000000000000014
20
-37.000000000000028
30
0
11
-74.000000000000014
21
-23.000000000000007
31
0
0
LINE
5
101
100
AcDbEntity
8
0
100
AcDbLine
10
-106.00000000000001
20
-71.000000000000014
30
0
11
-92.000000000000014
21
-71.000000000000014
31
0
0
LWPOLYLINE
5
102
100
AcDbEntity
8
0
100
AcDbPolyline
90
8
70
1
43
0.0
10
-108
20
93
42
-0.41421356237309509
10
-98
20
103
10
98.000000000000043
20
103
42
-0.41421356237309509
10
108
20
93.000000000000043
10
108
20
-88
42
-0.41421356237309509
10
98
20
-98
10
-98.000000000000028
20
-97.999999999999986
42
-0.41421356237309509
10
-108
20
-88
0
LINE
5
103
100
AcDbEntity
8
0
100
AcDbLine
10
-70.000000000000014
20
-40
30
0
11
-70.000000000000014
21
-54.000000000000021
31
0
0
LWPOLYLINE
5
104
100
AcDbEntity
8
0
100
AcDbPolyline
90
8
70
1
43
0.0
10
97.999999999999972
20
88
10
97.999999999999986
20
93
10
70
20
93
10
70
20
-8.000000000000016
10
97.999999999999986
20
-8.000000000000016
10
97.999999999999986
20
18.000000000000007
10
106.00000000000007
20
18.000000000000014
10
106.00000000000001
20
88
0
LWPOLYLINE
5
105
100
AcDbEntity
8
0
100
AcDbPolyline
90
4
70
1
43
0.0
10
60
20
93
10
-98
20
93
10
-98
20
-8.000000000000016
10
60
20
-8.0000000000000071
0
LINE
5
106
100
AcDbEntity
8
0
100
AcDbLine
10
-106.00000000000001
20
-54.000000000000021
30
0
11
-92.000000000000014
21
-54.000000000000021
31
0
0
LINE
5
107
100
AcDbEntity
8
0
100
AcDbLine
10
-92.000000000000014
20
-23.000000000000007
30
0
11
-106.00000000000001
21
-23.000000000000007
31
0
0
LINE
5
108
100
AcDbEntity
8
0
100
AcDbLine
10
-106.00000000000001
20
-57.000000000000028
30
0
11
-106.00000000000001
21
-71.000000000000014
31
0
0
LINE
5
109
100
AcDbEntity
8
0
100
AcDbLine
10
-52.000000000000014
20
-88
30
0
11
-38
21
-88
31
0
0
LINE
5
110
100
AcDbEntity
8
0
100
AcDbLine
10
-34.000000000000014
20
-23.000000000000007
30
0
11
-34.000000000000014
21
-37.000000000000028
31
0
0
LINE
5
111
100
AcDbEntity
8
0
100
AcDbLine
10
-34.000000000000014
20
-54.000000000000021
30
0
11
-20.000000000000007
21
-54.000000000000021
31
0
0
LINE
5
112
100
AcDbEntity
8
0
100
AcDbLine
10
-88
20
-23.000000000000007
30
0
11
-88
21
-37.000000000000028
31
0
0
LINE
5
113
100
AcDbEntity
8
0
100
AcDbLine
10
-33.999999999999986
20
-74.000000000000028
30
0
11
-34.000000000000007
21
-88
31
0
0
LINE
5
114
100
AcDbEntity
8
0
100
AcDbLine
10
-34.000000000000007
20
-88
30
0
11
-20.000000000000004
21
-88
31
0
0
LINE
5
115
100
AcDbEntity
8
0
100
AcDbLine
10
-74.000000000000014
20
-57.000000000000028
30
0
11
-88
21
-57.000000000000028
31
0
0
LINE
5
116
100
AcDbEntity
8
0
100
AcDbLine
10
-74.000000000000014
20
-40
30
0
11
-88
21
-40
31
0
0
LINE
5
117
100
AcDbEntity
8
0
100
AcDbLine
10
-74.000000000000014
20
-23.000000000000007
30
0
11
-88
21
-23.000000000000007
31
0
0
LINE
5
118
100
AcDbEntity
8
0
100
AcDbLine
10
-88
20
-37.000000000000028
30
0
11
-74.000000000000014
21
-37.000000000000028
31
0
0
LINE
5
119
100
AcDbEntity
8
0
100
AcDbLine
10
-88
20
-71.000000000000014
30
0
11
-74.000000000000014
21
-71.000000000000014
31
0
0
LINE
5
120
100
AcDbEntity
8
0
100
AcDbLine
10
-88
20
-54.000000000000021
30
0
11
-74.000000000000014
21
-54.000000000000021
31
0
0
LINE
5
121
100
AcDbEntity
8
0
100
AcDbLine
10
-70.000000000000014
20
-71.000000000000014
30
0
11
-56.000000000000007
21
-71.000000000000014
31
0
0
LINE
5
122
100
AcDbEntity
8
0
100
AcDbLine
10
-52.000000000000014
20
-54.000000000000021
30
0
11
-38.000000000000007
21
-54.000000000000021
31
0
0
LINE
5
123
100
AcDbEntity
8
0
100
AcDbLine
10
-52.000000000000014
20
-71.000000000000014
30
0
11
-38.000000000000007
21
-71.000000000000014
31
0
0
LINE
5
124
100
AcDbEntity
8
0
100
AcDbLine
10
-56.000000000000007
20
-23.000000000000007
30
0
11
-70.000000000000014
21
-23.000000000000007
31
0
0
LINE
5
125
100
AcDbEntity
8
0
100
AcDbLine
10
-70.000000000000014
20
-23.000000000000007
30
0
11
-70.000000000000014
21
-37.000000000000028
31
0
0
LINE
5
126
100
AcDbEntity
8
0
100
AcDbLine
10
-56.000000000000007
20
-37.000000000000028
30
0
11
-56.000000000000007
21
-23.000000000000007
31
0
0
LINE
5
127
100
AcDbEntity
8
0
100
AcDbLine
10
-38.000000000000007
20
-23.000000000000007
30
0
11
-52.000000000000014
21
-23.000000000000007
31
0
0
LINE
5
128
100
AcDbEntity
8
0
100
AcDbLine
10
-52.000000000000014
20
-74.000000000000028
30
0
11
-52.000000000000014
21
-88
31
0
0
LINE
5
129
100
AcDbEntity
8
0
100
AcDbLine
10
-70.000000000000014
20
-57.000000000000028
30
0
11
-70.000000000000014
21
-71.000000000000014
31
0
0
LINE
5
130
100
AcDbEntity
8
0
100
AcDbLine
10
-52.000000000000014
20
-57.000000000000028
30
0
11
-52.000000000000014
21
-71.000000000000014
31
0
0
LINE
5
131
100
AcDbEntity
8
0
100
AcDbLine
10
-52.000000000000014
20
-37.000000000000028
30
0
11
-38.000000000000007
21
-37.000000000000028
31
0
0
LINE
5
132
100
AcDbEntity
8
0
100
AcDbLine
10
-38.000000000000007
20
-40
30
0
11
-52.000000000000014
21
-40
31
0
0
LINE
5
133
100
AcDbEntity
8
0
100
AcDbLine
10
-38.000000000000007
20
-57.000000000000028
30
0
11
-52.000000000000014
21
-57.000000000000028
31
0
0
LINE
5
134
100
AcDbEntity
8
0
100
AcDbLine
10
-34.000000000000014
20
-40
30
0
11
-34.000000000000014
21
-54.000000000000021
31
0
0
LINE
5
135
100
AcDbEntity
8
0
100
AcDbLine
10
-34.000000000000014
20
-71.000000000000014
30
0
11
-20.000000000000007
21
-71.000000000000014
31
0
0
LINE
5
136
100
AcDbEntity
8
0
100
AcDbLine
10
-20.00000000000005
20
-74.000000000000028
30
0
11
-33.999999999999986
21
-74.000000000000028
31
0
0
LINE
5
137
100
AcDbEntity
8
0
100
AcDbLine
10
-16.000000000000007
20
-74.000000000000028
30
0
11
-16.000000000000011
21
-88
31
0
0
LWPOLYLINE
5
138
100
AcDbEntity
8
0
100
AcDbPolyline
90
4
70
1
43
0.0
10
-15
20
-23.000000000000014
10
-15
20
-62.000000000000021
10
15
20
-62.000000000000021
10
15
20
-23.000000000000014
0
LINE
5
139
100
AcDbEntity
8
0
100
AcDbLine
10
-20.000000000000007
20
-23.000000000000007
30
0
11
-34.000000000000014
21
-23.000000000000007
31
0
0
LINE
5
140
100
AcDbEntity
8
0
100
AcDbLine
10
-20.000000000000007
20
-54.000000000000021
30
0
11
-20.000000000000007
21
-40
31
0
0
LINE
5
141
100
AcDbEntity
8
0
100
AcDbLine
10
-38.000000000000007
20
-71.000000000000014
30
0
11
-38.000000000000007
21
-57.000000000000028
31
0
0
LINE
5
142
100
AcDbEntity
8
0
100
AcDbLine
10
-20.000000000000004
20
-88
30
0
11
-20.00000000000005
21
-74.000000000000028
31
0
0
LINE
5
143
100
AcDbEntity
8
0
100
AcDbLine
10
-74.000000000000014
20
-71.000000000000014
30
0
11
-74.000000000000014
21
-57.000000000000028
31
0
0
LINE
5
144
100
AcDbEntity
8
0
100
AcDbLine
10
-88
20
-40
30
0
11
-88
21
-54.000000000000021
31
0
0
LINE
5
145
100
AcDbEntity
8
0
100
AcDbLine
10
-106.00000000000001
20
-37.000000000000028
30
0
11
-92.000000000000014
21
-37.000000000000028
31
0
0
LINE
5
146
100
AcDbEntity
8
0
100
AcDbLine
10
-56.000000000000007
20
-71.000000000000014
30
0
11
-56.000000000000007
21
-57.000000000000028
31
0
0
LINE
5
147
100
AcDbEntity
8
0
100
AcDbLine
10
-56.000000000000007
20
-54.000000000000021
30
0
11
-56.000000000000007
21
-40
31
0
0
LINE
5
148
100
AcDbEntity
8
0
100
AcDbLine
10
-88
20
-57.000000000000028
30
0
11
-88
21
-71.000000000000014
31
0
0
LINE
5
149
100
AcDbEntity
8
0
100
AcDbLine
10
-56.000000000000007
20
-40
30
0
11
-70.000000000000014
21
-40
31
0
0
LINE
5
150
100
AcDbEntity
8
0
100
AcDbLine
10
-106.00000000000001
20
-40
30
0
11
-106.00000000000001
21
-54.000000000000021
31
0
0
LINE
5
151
100
AcDbEntity
8
0
100
AcDbLine
10
-92.000000000000014
20
-57.000000000000028
30
0
11
-106.00000000000001
21
-57.000000000000028
31
0
0
LINE
5
152
100
AcDbEntity
8
0
100
AcDbLine
10
-52.000000000000014
20
-23.000000000000007
30
0
11
-52.000000000000014
21
-37.000000000000028
31
0
0
LINE
5
153
100
AcDbEntity
8
0
100
AcDbLine
10
-70.000000000000014
20
-37.000000000000028
30
0
11
-56.000000000000007
21
-37.000000000000028
31
0
0
LINE
5
154
100
AcDbEntity
8
0
100
AcDbLine
10
-92.000000000000014
20
-40
30
0
11
-106.00000000000001
21
-40
31
0
0
LINE
5
155
100
AcDbEntity
8
0
100
AcDbLine
10
-38.000000000000036
20
-74.000000000000028
30
0
11
-52.000000000000014
21
-74.000000000000028
31
0
0
LINE
5
156
100
AcDbEntity
8
0
100
AcDbLine
10
-74.000000000000014
20
-54.000000000000021
30
0
11
-74.000000000000014
21
-40
31
0
0
LINE
5
157
100
AcDbEntity
8
0
100
AcDbLine
10
-92.000000000000014
20
-54.000000000000021
30
0
11
-92.000000000000014
21
-40
31
0
0
LINE
5
158
100
AcDbEntity
8
0
100
AcDbLine
10
-52.000000000000014
20
-40
30
0
11
-52.000000000000014
21
-54.000000000000021
31
0
0
LINE
5
159
100
AcDbEntity
8
0
100
AcDbLine
10
-92.000000000000014
20
-37.000000000000028
30
0
11
-92.000000000000014
21
-23.000000000000007
31
0
0
LINE
5
160
100
AcDbEntity
8
0
100
AcDbLine
10
-56.000000000000007
20
-57.000000000000028
30
0
11
-70.000000000000014
21
-57.000000000000028
31
0
0
LINE
5
161
100
AcDbEntity
8
0
100
AcDbLine
10
-70.000000000000014
20
-54.000000000000021
30
0
11
-56.000000000000007
21
-54.000000000000021
31
0
0
LINE
5
162
100
AcDbEntity
8
0
100
AcDbLine
10
92.000000000000014
20
-37.000000000000014
30
0
11
92.000000000000014
21
-23.000000000000007
31
0
0
LINE
5
163
100
AcDbEntity
8
0
100
AcDbLine
10
56
20
-57.000000000000014
30
0
11
70.000000000000014
21
-57.000000000000014
31
0
0
LINE
5
164
100
AcDbEntity
8
0
100
AcDbLine
10
106.00000000000001
20
-54.000000000000014
30
0
11
92.000000000000014
21
-54.000000000000014
31
0
0
LINE
5
165
100
AcDbEntity
8
0
100
AcDbLine
10
70.000000000000014
20
-23.000000000000007
30
0
11
70.000000000000014
21
-37.000000000000014
31
0
0
LINE
5
166
100
AcDbEntity
8
0
100
AcDbLine
10
52.000000000000014
20
-54.000000000000014
30
0
11
38
21
-54.000000000000014
31
0
0
LINE
5
167
100
AcDbEntity
8
0
100
AcDbLine
10
88
20
-40.000000000000007
30
0
11
88
21
-54.000000000000014
31
0
0
LINE
5
168
100
AcDbEntity
8
0
100
AcDbLine
10
52.000000000000014
20
-88
30
0
11
38
21
-88
31
0
0
LINE
5
169
100
AcDbEntity
8
0
100
AcDbLine
10
92.000000000000014
20
-71.000000000000014
30
0
11
92.000000000000014
21
-57.000000000000014
31
0
0
LINE
5
170
100
AcDbEntity
8
0
100
AcDbLine
10
38
20
-40.000000000000007
30
0
11
52.000000000000014
21
-40.000000000000007
31
0
0
LINE
5
171
100
AcDbEntity
8
0
100
AcDbLine
10
56
20
-40.000000000000007
30
0
11
70.000000000000014
21
-40.000000000000007
31
0
0
LINE
5
172
100
AcDbEntity
8
0
100
AcDbLine
10
92.000000000000014
20
-54.000000000000014
30
0
11
92.000000000000014
21
-40.000000000000007
31
0
0
LINE
5
173
100
AcDbEntity
8
0
100
AcDbLine
10
38.000000000000036
20
-74.000000000000028
30
0
11
52.000000000000014
21
-74.000000000000028
31
0
0
LINE
5
174
100
AcDbEntity
8
0
100
AcDbLine
10
56
20
-71.000000000000014
30
0
11
56
21
-57.000000000000014
31
0
0
LINE
5
175
100
AcDbEntity
8
0
100
AcDbLine
10
106.00000000000001
20
-71.000000000000014
30
0
11
92.000000000000014
21
-71.000000000000014
31
0
0
LINE
5
176
100
AcDbEntity
8
0
100
AcDbLine
10
74
20
-37.000000000000014
30
0
11
74
21
-23.000000000000007
31
0
0
LINE
5
177
100
AcDbEntity
8
0
100
AcDbLine
10
56
20
-23.000000000000007
30
0
11
70.000000000000014
21
-23.000000000000007
31
0
0
LINE
5
178
100
AcDbEntity
8
0
100
AcDbLine
10
56
20
-54.000000000000014
30
0
11
56
21
-40.000000000000007
31
0
0
LINE
5
179
100
AcDbEntity
8
0
100
AcDbLine
10
70.000000000000014
20
-57.000000000000014
30
0
11
70.000000000000014
21
-71.000000000000014
31
0
0
LINE
5
180
100
AcDbEntity
8
0
100
AcDbLine
10
38
20
-23.000000000000007
30
0
11
52.000000000000014
21
-23.000000000000007
31
0
0
LINE
5
181
100
AcDbEntity
8
0
100
AcDbLine
10
52.000000000000014
20
-37.000000000000014
30
0
11
38
21
-37.000000000000014
31
0
0
LINE
5
182
100
AcDbEntity
8
0
100
AcDbLine
10
92.000000000000014
20
-40.000000000000007
30
0
11
106.00000000000001
21
-40.000000000000007
31
0
0
LINE
5
183
100
AcDbEntity
8
0
100
AcDbLine
10
106.00000000000001
20
-23.000000000000007
30
0
11
106.00000000000001
21
-37.000000000000014
31
0
0
LINE
5
184
100
AcDbEntity
8
0
100
AcDbLine
10
106.00000000000001
20
-57.000000000000014
30
0
11
106.00000000000001
21
-71.000000000000014
31
0
0
LINE
5
185
100
AcDbEntity
8
0
100
AcDbLine
10
52.000000000000014
20
-71.000000000000014
30
0
11
38
21
-71.000000000000014
31
0
0
LINE
5
186
100
AcDbEntity
8
0
100
AcDbLine
10
70.000000000000014
20
-37.000000000000014
30
0
11
56
21
-37.000000000000014
31
0
0
LINE
5
187
100
AcDbEntity
8
0
100
AcDbLine
10
92.000000000000014
20
-57.000000000000014
30
0
11
106.00000000000001
21
-57.000000000000014
31
0
0
LINE
5
188
100
AcDbEntity
8
0
100
AcDbLine
10
88
20
-57.000000000000014
30
0
11
88
21
-71.000000000000014
31
0
0
LINE
5
189
100
AcDbEntity
8
0
100
AcDbLine
10
38
20
-57.000000000000014
30
0
11
52.000000000000014
21
-57.000000000000014
31
0
0
LINE
5
190
100
AcDbEntity
8
0
100
AcDbLine
10
106.00000000000001
20
-40.000000000000007
30
0
11
106.00000000000001
21
-54.000000000000014
31
0
0
LINE
5
191
100
AcDbEntity
8
0
100
AcDbLine
10
70.000000000000014
20
-40.000000000000007
30
0
11
70.000000000000014
21
-54.000000000000014
31
0
0
LINE
5
192
100
AcDbEntity
8
0
100
AcDbLine
10
106.00000000000001
20
-37.000000000000014
30
0
11
92.000000000000014
21
-37.000000000000014
31
0
0
LINE
5
193
100
AcDbEntity
8
0
100
AcDbLine
10
70.000000000000014
20
-71.000000000000014
30
0
11
56
21
-71.000000000000014
31
0
0
LINE
5
194
100
AcDbEntity
8
0
100
AcDbLine
10
88
20
-23.000000000000007
30
0
11
88
21
-37.000000000000014
31
0
0
LINE
5
195
100
AcDbEntity
8
0
100
AcDbLine
10
-106.00000000000001
20
-23.000000000000007
30
0
11
-106.00000000000001
21
-37.000000000000028
31
0
0
LINE
5
196
100
AcDbEntity
8
0
100
AcDbLine
10
20.00000000000005
20
-74.000000000000028
30
0
11
33.999999999999986
21
-74.000000000000028
31
0
0
LINE
5
197
100
AcDbEntity
8
0
100
AcDbLine
10
20.000000000000007
20
-37.000000000000014
30
0
11
20
21
-23.000000000000007
31
0
0
LINE
5
198
100
AcDbEntity
8
0
100
AcDbLine
10
20
20
-54.000000000000014
30
0
11
20
21
-40.000000000000007
31
0
0
LINE
5
199
100
AcDbEntity
8
0
100
AcDbLine
10
34.000000000000007
20
-88
30
0
11
20.000000000000004
21
-88
31
0
0
LINE
5
200
100
AcDbEntity
8
0
100
AcDbLine
10
33.999999999999986
20
-74.000000000000028
30
0
11
34.000000000000007
21
-88
31
0
0
LINE
5
201
100
AcDbEntity
8
0
100
AcDbLine
10
34.000000000000007
20
-40.000000000000007
30
0
11
34.000000000000007
21
-54.000000000000014
31
0
0
LINE
5
202
100
AcDbEntity
8
0
100
AcDbLine
10
20
20
-71.000000000000014
30
0
11
20
21
-57.000000000000014
31
0
0
LINE
5
203
100
AcDbEntity
8
0
100
AcDbLine
10
34.000000000000007
20
-71.000000000000014
30
0
11
20
21
-71.000000000000014
31
0
0
LINE
5
204
100
AcDbEntity
8
0
100
AcDbLine
10
2.000000000000004
20
-74.000000000000028
30
0
11
16.000000000000007
21
-74.000000000000028
31
0
0
LINE
5
205
100
AcDbEntity
8
0
100
AcDbLine
10
20
20
-23.000000000000007
30
0
11
34.000000000000007
21
-23.000000000000007
31
0
0
LINE
5
206
100
AcDbEntity
8
0
100
AcDbLine
10
38
20
-88
30
0
11
38.000000000000036
21
-74.000000000000028
31
0
0
LINE
5
207
100
AcDbEntity
8
0
100
AcDbLine
10
38
20
-37.000000000000014
30
0
11
38
21
-23.000000000000007
31
0
0
LINE
5
208
100
AcDbEntity
8
0
100
AcDbLine
10
20.000000000000004
20
-88
30
0
11
20.00000000000005
21
-74.000000000000028
31
0
0
LINE
5
209
100
AcDbEntity
8
0
100
AcDbLine
10
34.000000000000007
20
-23.000000000000007
30
0
11
34.000000000000007
21
-37.000000000000014
31
0
0
LINE
5
210
100
AcDbEntity
8
0
100
AcDbLine
10
16.000000000000011
20
-88
30
0
11
2.000000000000004
21
-88
31
0
0
LINE
5
211
100
AcDbEntity
8
0
100
AcDbLine
10
34.000000000000007
20
-37.000000000000014
30
0
11
20.000000000000007
21
-37.000000000000014
31
0
0
LINE
5
212
100
AcDbEntity
8
0
100
AcDbLine
10
38
20
-54.000000000000014
30
0
11
38
21
-40.000000000000007
31
0
0
LINE
5
213
100
AcDbEntity
8
0
100
AcDbLine
10
20
20
-57.000000000000014
30
0
11
34.000000000000007
21
-57.000000000000014
31
0
0
LINE
5
214
100
AcDbEntity
8
0
100
AcDbLine
10
34.000000000000007
20
-57.000000000000014
30
0
11
34.000000000000007
21
-71.000000000000014
31
0
0
LINE
5
215
100
AcDbEntity
8
0
100
AcDbLine
10
34.000000000000007
20
-54.000000000000014
30
0
11
20
21
-54.000000000000014
31
0
0
LINE
5
216
100
AcDbEntity
8
0
100
AcDbLine
10
88
20
-71.000000000000014
30
0
11
74
21
-71.000000000000014
31
0
0
LINE
5
217
100
AcDbEntity
8
0
100
AcDbLine
10
16.000000000000007
20
-74.000000000000028
30
0
11
16.000000000000011
21
-88
31
0
0
LINE
5
218
100
AcDbEntity
8
0
100
AcDbLine
10
2.000000000000004
20
-88
30
0
11
2.000000000000004
21
-74.000000000000028
31
0
0
LINE
5
219
100
AcDbEntity
8
0
100
AcDbLine
10
74
20
-23.000000000000007
30
0
11
88
21
-23.000000000000007
31
0
0
LINE
5
220
100
AcDbEntity
8
0
100
AcDbLine
10
88
20
-54.000000000000014
30
0
11
74
21
-54.000000000000014
31
0
0
LINE
5
221
100
AcDbEntity
8
0
100
AcDbLine
10
38
20
-71.000000000000014
30
0
11
38
21
-57.000000000000014
31
0
0
LINE
5
222
100
AcDbEntity
8
0
100
AcDbLine
10
20
20
-40.000000000000007
30
0
11
34.000000000000007
21
-40.000000000000007
31
0
0
LINE
5
223
100
AcDbEntity
8
0
100
AcDbLine
10
74
20
-40.000000000000007
30
0
11
88
21
-40.000000000000007
31
0
0
LINE
5
224
100
AcDbEntity
8
0
100
AcDbLine
10
88
20
-37.000000000000014
30
0
11
74
21
-37.000000000000014
31
0
0
LINE
5
225
100
AcDbEntity
8
0
100
AcDbLine
10
56
20
-37.000000000000014
30
0
11
56
21
-23.000000000000007
31
0
0
LINE
5
226
100
AcDbEntity
8
0
100
AcDbLine
10
52.000000000000014
20
-23.000000000000007
30
0
11
52.000000000000014
21
-37.000000000000014
31
0
0
LINE
5
227
100
AcDbEntity
8
0
100
AcDbLine
10
70.000000000000014
20
-54.000000000000014
30
0
11
56
21
-54.000000000000014
31
0
0
LINE
5
228
100
AcDbEntity
8
0
100
AcDbLine
10
92.000000000000014
20
-23.000000000000007
30
0
11
106.00000000000001
21
-23.000000000000007
31
0
0
LINE
5
229
100
AcDbEntity
8
0
100
AcDbLine
10
74
20
-57.000000000000014
30
0
11
88
21
-57.000000000000014
31
0
0
LINE
5
230
100
AcDbEntity
8
0
100
AcDbLine
10
74
20
-54.000000000000014
30
0
11
74
21
-40.000000000000007
31
0
0
LINE
5
231
100
AcDbEntity
8
0
100
AcDbLine
10
52.000000000000014
20
-40.000000000000007
30
0
11
52.000000000000014
21
-54.000000000000014
31
0
0
LINE
5
232
100
AcDbEntity
8
0
100
AcDbLine
10
52.000000000000014
20
-57.000000000000014
30
0
11
52.000000000000014
21
-71.000000000000014
31
0
0
LINE
5
233
100
AcDbEntity
8
0
100
AcDbLine
10
74
20
-71.000000000000014
30
0
11
74
21
-57.000000000000014
31
0
0
LINE
5
234
100
AcDbEntity
8
0
100
AcDbLine
10
52.000000000000014
20
-74.000000000000028
30
0
11
52.000000000000014
21
-88
31
0
0
LINE
5
235
100
AcDbEntity
8
0
100
AcDbLine
10
-92.000000000000014
20
-71.000000000000014
30
0
11
-92.000000000000014
21
-57.000000000000028
31
0
0
LINE
5
236
100
AcDbEntity
8
0
100
AcDbLine
10
-20.000000000000007
20
-37.000000000000028
30
0
11
-20.000000000000007
21
-23.000000000000007
31
0
0
LINE
5
237
100
AcDbEntity
8
0
100
AcDbLine
10
-38.000000000000007
20
-54.000000000000021
30
0
11
-38.000000000000007
21
-40
31
0
0
LINE
5
238
100
AcDbEntity
8
0
100
AcDbLine
10
-20.000000000000007
20
-71.000000000000014
30
0
11
-20.000000000000007
21
-57.000000000000028
31
0
0
LINE
5
239
100
AcDbEntity
8
0
100
AcDbLine
10
-2.000000000000004
20
-74.000000000000028
30
0
11
-16.000000000000007
21
-74.000000000000028
31
0
0
LINE
5
240
100
AcDbEntity
8
0
100
AcDbLine
10
-34.000000000000014
20
-37.000000000000028
30
0
11
-20.000000000000007
21
-37.000000000000028
31
0
0
LINE
5
241
100
AcDbEntity
8
0
100
AcDbLine
10
-20.000000000000007
20
-57.000000000000028
30
0
11
-34.000000000000014
21
-57.000000000000028
31
0
0
LINE
5
242
100
AcDbEntity
8
0
100
AcDbLine
10
-20.000000000000007
20
-40
30
0
11
-34.000000000000014
21
-40
31
0
0
LINE
5
243
100
AcDbEntity
8
0
100
AcDbLine
10
-34.000000000000014
20
-57.000000000000028
30
0
11
-34.000000000000014
21
-71.000000000000014
31
0
0
LINE
5
244
100
AcDbEntity
8
0
100
AcDbLine
10
-16.000000000000011
20
-88
30
0
11
-2.000000000000004
21
-88
31
0
0
LINE
5
245
100
AcDbEntity
8
0
100
AcDbLine
10
-2.000000000000004
20
-88
30
0
11
-2.000000000000004
21
-74.000000000000028
31
0
0
LINE
5
246
100
AcDbEntity
8
0
100
AcDbLine
10
-38.000000000000007
20
-37.000000000000028
30
0
11
-38.000000000000007
21
-23.000000000000007
31
0
0
LINE
5
247
100
AcDbEntity
8
0
100
AcDbLine
10
-38
20
-88
30
0
11
-38.000000000000036
21
-74.000000000000028
31
0
0
CIRCLE
5
248
100
AcDbEntity
8
0
100
AcDbCircle
10
102.5000015348196
20
92.50000137090683
30
0
40
1.4999999999999971
210
0
220
-0
230
1
0
CIRCLE
5
249
100
AcDbEntity
8
0
100
AcDbCircle
10
75.500001534819589
20
97.50000137090683
30
0
40
1.4999999999999971
210
0
220
-0
230
1
0
CIRCLE
5
250
100
AcDbEntity
8
0
100
AcDbCircle
10
102.5000015348196
20
13.50000137090683
30
0
40
1.4999999999999971
210
0
220
-0
230
1
0
CIRCLE
5
251
100
AcDbEntity
8
0
100
AcDbCircle
10
102.5000015348196
20
-15.499998629093174
30
0
40
1.4999999999999971
210
0
220
-0
230
1
0
CIRCLE
5
252
100
AcDbEntity
8
0
100
AcDbCircle
10
76.500001534819603
20
-15.499998629093174
30
0
40
1.4999999999999971
210
0
220
-0
230
1
0
CIRCLE
5
253
100
AcDbEntity
8
0
100
AcDbCircle
10
97.988681384512375
20
-94.000000000000028
30
0
40
1.499999999999992
210
0
220
-0
230
1
0
CIRCLE
5
254
100
AcDbEntity
8
0
100
AcDbCircle
10
64.999999999999986
20
-94.000000000000028
30
0
40
1.5000000000000115
210
0
220
-0
230
1
0
CIRCLE
5
255
100
AcDbEntity
8
0
100
AcDbCircle
10
44.988681384512361
20
-94.000000000000028
30
0
40
1.499999999999992
210
0
220
-0
230
1
0
CIRCLE
5
256
100
AcDbEntity
8
0
100
AcDbCircle
10
-45.011318615487639
20
-94.000000000000028
30
0
40
1.499999999999992
210
0
220
-0
230
1
0
CIRCLE
5
257
100
AcDbEntity
8
0
100
AcDbCircle
10
-65.011318615487639
20
-94.000000000000028
30
0
40
1.499999999999992
210
0
220
-0
230
1
0
CIRCLE
5
258
100
AcDbEntity
8
0
100
AcDbCircle
10
-98.000000000000028
20
-94.000000000000028
30
0
40
1.5000000000000115
210
0
220
-0
230
1
0
CIRCLE
5
259
100
AcDbEntity
8
0
100
AcDbCircle
10
-90.000001341104507
20
-38.500000573694706
30
0
40
1.5999999999999936
210
0
220
-0
230
1
0
CIRCLE
5
260
100
AcDbEntity
8
0
100
AcDbCircle
10
-36.000001341104507
20
-38.500000573694706
30
0
40
1.5999999999999936
210
0
220
-0
230
1
0
CIRCLE
5
261
100
AcDbEntity
8
0
100
AcDbCircle
10
-12.011318615487639
20
-67.000000000000028
30
0
40
1.5000000000000022
210
0
220
-0
230
1
0
CIRCLE
5
262
100
AcDbEntity
8
0
100
AcDbCircle
10
11.988681384512361
20
-67.000000000000028
30
0
40
1.5000000000000022
210
0
220
-0
230
1
0
CIRCLE
5
263
100
AcDbEntity
8
0
100
AcDbCircle
10
35.999998658895493
20
-38.500000573694706
30
0
40
1.5999999999999936
210
0
220
-0
230
1
0
CIRCLE
5
264
100
AcDbEntity
8
0
100
AcDbCircle
10
89.999998658895493
20
-38.500000573694706
30
0
40
1.5999999999999936
210
0
220
-0
230
1
0
CIRCLE
5
265
100
AcDbEntity
8
0
100
AcDbCircle
10
-101.00000150501728
20
96.000001430511475
30
0
40
1.5000000000000036
210
0
220
-0
230
1
0
CIRCLE
5
266
100
AcDbEntity
8
0
100
AcDbCircle
10
64.499998494982719
20
98.000001430511475
30
0
40
1.5000000000000036
210
0
220
-0
230
1
0
CIRCLE
5
267
100
AcDbEntity
8
0
100
AcDbCircle
10
64.499998494982719
20
-3.9999985694885432
30
0
40
1.5000000000000036
210
0
220
-0
230
1
0
CIRCLE
5
268
100
AcDbEntity
8
0
100
AcDbCircle
10
36.577461819669338
20
-15.10971685010478
30
0
40
1.4999999999999991
210
0
220
-0
230
1
0
CIRCLE
5
269
100
AcDbEntity
8
0
100
AcDbCircle
10
-15.422538180330676
20
-15.10971685010478
30
0
40
1.4999999999999991
210
0
220
-0
230
1
0
CIRCLE
5
270
100
AcDbEntity
8
0
100
AcDbCircle
10
-75.422538180330676
20
-15.10971685010478
30
0
40
1.4999999999999991
210
0
220
-0
230
1
0
CIRCLE
5
271
100
AcDbEntity
8
0
100
AcDbCircle
10
-103.00000150501728
20
-3.9999985694885254
30
0
40
1.5000000000000036
210
0
220
-0
230
1
0
CIRCLE
5
272
100
AcDbEntity
8
0
100
AcDbCircle
10
-11.000001505017281
20
98.000001430511475
30
0
40
1.5000000000000036
210
0
220
-0
230
1
0
CIRCLE
5
273
100
AcDbEntity
8
0
100
AcDbCircle
10
-50.422538180330676
20
-15.10971685010478
30
0
40
1.4999999999999991
210
0
220
-0
230
1
0
CIRCLE
5
274
100
AcDbEntity
8
0
100
AcDbCircle
10
14.577461819669324
20
-15.10971685010478
30
0
40
1.4999999999999991
210
0
220
-0
230
1
0
CIRCLE
5
275
100
AcDbEntity
8
0
100
AcDbCircle
10
-35.000001505017281
20
98.000001430511475
30
0
40
1.5000000000000036
210
0
220
-0
230
1
0
CIRCLE
5
276
100
AcDbEntity
8
0
100
AcDbCircle
10
-103.00000150501728
20
46.000001430511475
30
0
40
1.600000000000007
210
0
220
-0
230
1
0
ENDSEC
0
SECTION
2
OBJECTS
0
DICTIONARY
5
C
100
AcDbDictionary
3
ACAD_GROUP
350
D
3
ACAD_MLINESTYLE
350
17
0
DICTIONARY
5
D
100
AcDbDictionary
0
DICTIONARY
5
1A
330
C
100
AcDbDictionary
0
DICTIONARY
5
17
100
AcDbDictionary
0
ENDSEC
0
EOF
